<?xml version="1.0" encoding="UTF-8"?>
<!DOCTYPE svg PUBLIC "-//W3C//DTD SVG 1.1//EN" "http://www.w3.org/Graphics/SVG/1.1/DTD/svg11.dtd">
<!-- Creator: CorelDRAW X7 -->
<svg xmlns="http://www.w3.org/2000/svg" xml:space="preserve" width="35.6362mm" height="12.954mm" version="1.1" style="shape-rendering:geometricPrecision; text-rendering:geometricPrecision; image-rendering:optimizeQuality; fill-rule:evenodd; clip-rule:evenodd"
viewBox="0 0 3564 1295"
 xmlns:xlink="http://www.w3.org/1999/xlink">
 <defs>
  <style type="text/css">
   <![CDATA[
    .str0 {stroke:#FEFEFE;stroke-width:7.05}
    .fil7 {fill:none;fill-rule:nonzero}
    .fil0 {fill:#FEFEFE}
    .fil2 {fill:#FECC00}
    .fil6 {fill:#EE741D}
    .fil1 {fill:#E31E24}
    .fil4 {fill:#00A0E3}
    .fil5 {fill:#009846}
    .fil3 {fill:#FEFEFE;fill-rule:nonzero}
    .fil8 {fill:#FEFEFE;fill-rule:nonzero}
   ]]>
  </style>
 </defs>
 <g id="Layer_x0020_1">
  <metadata id="CorelCorpID_0Corel-Layer"/>
  <path class="fil0" d="M913 8l0 882 100 0 0 154 -346 0 0 -154 105 0 0 -699c-16,24 -33,47 -53,72 -20,24 -50,57 -90,98l0 -198c27,-24 66,-66 118,-127 11,-13 19,-22 25,-28l141 0zm-673 453l-15 174 114 0 15 -174 -114 0zm-51 -416l85 0 -24 298 111 0 25 -298 85 0 -25 298 130 0 -9 118 -130 0 -14 173 137 0 -10 118 -136 0 -25 297 -85 0 25 -297 -112 0 -25 297 -85 0 25 -297 -133 0 10 -118 132 0 14 -173 -140 0 10 -118 140 0 24 -298z"/>
  <path class="fil1" d="M2079 276c38,0 69,31 69,69 0,38 -31,69 -69,69 -38,0 -69,-31 -69,-69 0,-38 31,-69 69,-69z"/>
  <path class="fil2" d="M2778 276c39,0 71,31 71,70 0,39 -32,70 -71,70 -38,0 -70,-31 -70,-70 0,-39 32,-70 70,-70z"/>
  <path class="fil3" d="M1428 53l-134 417c-9,27 -23,41 -42,41 -19,0 -33,-14 -42,-41l-133 -417 98 0 77 245 80 -245 96 0zm121 52c0,13 -4,24 -14,34 -10,9 -21,14 -34,14 -13,0 -24,-5 -34,-14 -9,-10 -14,-21 -14,-34 0,-12 5,-24 14,-33 10,-10 21,-15 34,-15 13,0 24,5 34,15 10,9 14,21 14,33zm-3 398l-90 0 0 -317 90 0 0 317zm327 0l-89 0 0 -186c0,-13 -5,-23 -14,-32 -9,-9 -20,-13 -31,-13 -11,0 -22,4 -31,13 -9,9 -14,19 -14,32l0 186 -89 0 0 -186c0,-36 13,-67 38,-94 25,-27 58,-40 97,-40 35,0 66,13 93,39 26,26 40,57 40,95l0 186zm364 0l-89 0 0 -85 -22 80c-13,6 -29,9 -47,9 -42,0 -79,-16 -111,-48 -31,-33 -47,-71 -47,-114 0,-44 16,-82 46,-114 31,-32 68,-48 111,-48 42,0 79,15 110,45 33,32 49,71 49,118l0 157zm-89 -158c0,-19 -7,-35 -21,-49 -13,-14 -29,-20 -48,-20 -19,0 -35,6 -49,20 -13,14 -20,30 -20,49 0,19 7,35 20,48 14,14 30,21 49,21 19,0 35,-7 48,-21 14,-13 21,-29 21,-48zm424 141c0,33 -13,65 -38,94 -31,38 -75,56 -130,56 -24,0 -43,-2 -59,-6 -15,-4 -36,-13 -62,-26l37 -85c30,19 58,29 81,29 21,0 38,-5 53,-15 15,-11 23,-23 25,-39 -13,7 -33,10 -61,10 -34,0 -63,-11 -87,-32 -23,-21 -34,-47 -34,-79l0 -207 89 0 0 174c0,15 4,27 14,37 9,10 21,15 36,15 14,0 25,-5 34,-15 8,-10 12,-22 12,-36l0 -175 90 0 0 300zm364 17l-89 0 0 -85 -22 80c-13,6 -29,9 -48,9 -42,0 -78,-16 -110,-48 -31,-33 -47,-71 -47,-114 0,-44 15,-82 46,-114 31,-32 68,-48 111,-48 42,0 79,15 110,45 32,32 49,71 49,118l0 157zm-89 -158c0,-19 -7,-35 -21,-49 -13,-14 -30,-20 -49,-20 -18,0 -34,6 -48,20 -13,14 -20,30 -20,49 0,19 7,35 20,48 14,14 30,21 48,21 19,0 36,-7 49,-21 14,-13 21,-29 21,-48zm423 -159l-108 109c31,7 53,19 66,35 14,19 21,50 21,94l0 79 -95 0 0 -89c0,-10 -4,-18 -11,-25 -7,-7 -15,-11 -24,-11 -10,0 -18,3 -25,10 -6,6 -10,14 -10,24l0 91 -89 0 0 -450 89 0 0 194 61 -61 125 0z"/>
  <path class="fil4" d="M2306 795c38,0 68,30 68,68 0,37 -30,68 -68,68 -37,0 -68,-31 -68,-68 0,-38 31,-68 68,-68z"/>
  <path class="fil3" d="M1543 1024l-90 0 0 -454 90 0 0 454zm329 0l-90 0 0 -188c0,-12 -4,-23 -14,-32 -9,-8 -19,-13 -31,-13 -11,0 -22,5 -31,13 -9,9 -14,20 -14,32l0 188 -90 0 0 -188c0,-35 13,-67 39,-94 25,-27 58,-41 97,-41 36,0 67,13 94,40 27,26 40,58 40,95l0 188zm265 -438l-28 84c-16,-9 -30,-14 -41,-14 -30,0 -45,17 -46,49l80 0 0 90 -80 0 0 229 -90 0 0 -326c0,-41 11,-74 32,-98 21,-24 51,-36 92,-36 25,0 52,7 81,22zm327 279c0,44 -15,83 -47,115 -31,32 -68,48 -112,48 -44,0 -82,-16 -113,-48 -31,-32 -47,-71 -47,-115 0,-45 16,-83 47,-115 31,-33 69,-49 113,-49 44,0 81,16 112,49 32,32 47,70 47,115zm-90 0c0,-19 -7,-36 -20,-49 -14,-14 -30,-21 -49,-21 -19,0 -36,7 -49,21 -14,13 -21,30 -21,49 0,19 7,35 21,49 13,14 30,20 49,20 19,0 35,-6 49,-20 13,-14 20,-30 20,-49zm409 -76c-38,1 -63,18 -75,52l-37 99c-9,25 -27,45 -54,62 -27,16 -56,25 -88,25 -3,0 -12,-1 -28,-2l-23 -92c9,0 18,0 27,0 48,0 79,-18 92,-54l34 -97c21,-58 68,-85 141,-81l11 88zm331 76c0,44 -16,83 -47,115 -31,32 -69,48 -113,48 -44,0 -81,-16 -113,-48 -31,-32 -46,-71 -46,-115 0,-45 15,-83 46,-115 32,-33 69,-49 113,-49 44,0 82,16 113,49 31,32 47,70 47,115zm-90 0c0,-19 -7,-36 -21,-49 -13,-14 -30,-21 -49,-21 -19,0 -35,7 -49,21 -14,13 -20,30 -20,49 0,19 6,35 20,49 14,14 30,20 49,20 19,0 36,-6 49,-20 14,-14 21,-30 21,-49zm343 -279l-28 84c-16,-9 -29,-14 -41,-14 -29,0 -45,17 -46,49l80 0 0 90 -80 0 0 229 -89 0 0 -326c0,-41 10,-74 31,-98 21,-24 52,-36 92,-36 26,0 53,7 81,22zm197 342l-6 94c-18,4 -34,6 -45,6 -36,0 -65,-8 -87,-25 -26,-20 -39,-51 -39,-93l0 -318 90 0 0 113 50 0 0 98 -50 0 0 72c0,43 17,64 51,64 10,0 22,-4 36,-11z"/>
  <path class="fil5" d="M2885 865c0,19 6,35 20,49 14,14 30,20 49,20 19,0 36,-6 49,-20 14,-14 21,-30 21,-49 0,-19 -7,-36 -21,-49 -13,-14 -30,-21 -49,-21 -19,0 -35,7 -49,21 -14,13 -20,30 -20,49z"/>
  <path class="fil6" d="M1535 139c10,-10 14,-21 14,-34 0,-12 -4,-24 -14,-33 -10,-10 -21,-15 -34,-15 -13,0 -24,5 -34,15 -9,9 -14,21 -14,33 0,13 5,24 14,34 10,9 21,14 34,14 13,0 24,-5 34,-14z"/>
  <g>
   <path class="fil7 str0" d="M1997 1138l35 0 9 89 50 -89 36 0 -2 6 -4 0c-3,0 -5,1 -6,1 -2,1 -3,1 -4,2 -1,1 -1,3 -2,4 -1,3 -1,5 -2,6l-17 76c0,1 0,3 0,4 0,2 1,4 2,5 1,1 4,1 7,1l4 0 -1 7 -45 0 2 -7 3 0c4,0 6,0 8,-1 1,0 3,-1 4,-3 1,-1 1,-3 2,-6l16 -80 -54 97 -8 0 -10 -96 -20 79c0,2 -1,3 -1,4 0,1 1,2 1,3 1,1 2,2 3,2 1,1 2,1 4,1l6 0 -2 7 -39 0 1 -7 5 0c4,0 7,-1 9,-2 1,-2 3,-5 4,-10l17 -76c0,-1 1,-2 1,-4 0,-2 -1,-4 -2,-5 -1,-1 -3,-2 -5,-2l-2 0 -5 0 2 -6zm200 34l10 0 -14 60c0,3 0,4 0,6 0,2 0,3 1,4 1,1 2,2 4,2 2,0 3,-1 5,-2 3,-2 6,-5 9,-9l5 5c-5,5 -8,8 -11,10 -4,2 -8,3 -12,3 -3,0 -6,0 -8,-1 -2,-1 -3,-3 -4,-5 -2,-2 -2,-4 -2,-7 0,-1 0,-5 1,-9 -4,6 -8,10 -12,13 -3,4 -7,6 -11,8 -4,1 -8,2 -12,2 -7,0 -13,-3 -17,-7 -5,-6 -7,-13 -7,-21 0,-10 2,-19 7,-27 4,-9 10,-15 17,-20 7,-4 15,-7 23,-7 5,0 9,1 13,3 5,2 8,4 11,8l4 -9zm-6 15c-3,-3 -6,-5 -10,-6 -3,-2 -7,-2 -10,-2 -6,0 -11,1 -16,5 -5,4 -9,9 -13,17 -4,8 -5,17 -5,25 0,3 0,6 1,9 1,3 3,5 5,6 2,1 4,2 7,2 4,0 9,-2 14,-5 6,-5 11,-11 16,-20 5,-9 9,-19 11,-31zm74 -55l-17 78c5,-9 11,-17 17,-23 6,-6 12,-10 18,-13 5,-2 11,-4 16,-4 6,0 10,1 12,3 3,2 4,4 4,7 0,2 -1,3 -2,4 -1,2 -3,2 -5,2 -1,0 -2,0 -3,0 -1,0 -2,-1 -5,-3 -3,-2 -6,-3 -8,-3 -3,0 -7,1 -11,3 -2,1 -5,3 -10,7l16 40c2,6 4,9 6,11 1,1 3,2 5,2 2,0 4,-1 6,-2 2,-1 5,-4 8,-8l5 4c-4,6 -8,9 -12,11 -3,2 -7,3 -11,3 -3,0 -5,0 -7,-1 -2,-1 -4,-3 -6,-5 -2,-3 -4,-6 -6,-10l-13 -34c-6,6 -10,13 -13,20 -5,10 -8,20 -10,29l-13 0 23 -105 -15 0 2 -6c8,-1 16,-3 23,-7l6 0zm90 0c3,0 5,1 6,2 2,2 2,4 2,6 0,3 -1,5 -3,7 -2,2 -4,3 -6,3 -3,0 -5,0 -6,-2 -2,-2 -3,-4 -3,-6 0,-3 1,-5 3,-7 2,-2 5,-3 7,-3zm1 38l-16 62c0,3 0,5 0,6 0,2 0,3 1,4 1,1 2,2 4,2 1,0 3,-1 5,-2 2,-2 5,-5 9,-9l5 5c-3,4 -7,7 -11,10 -4,2 -8,3 -12,3 -4,0 -8,-1 -10,-4 -3,-2 -5,-5 -5,-8 0,-3 1,-6 2,-9l11 -47 -14 0 1 -6c4,0 8,-1 11,-2 4,-1 8,-2 13,-5l6 0zm47 0l-6 26c2,-5 5,-8 7,-11 5,-5 10,-9 15,-11 5,-2 9,-4 14,-4 4,0 7,1 9,2 3,2 5,4 7,6 1,3 2,5 2,8 0,2 0,6 -1,10l-8 35c-1,3 -1,5 -1,7 0,1 0,3 1,4 1,1 2,1 4,1 4,0 8,-4 14,-11l5 5c-4,6 -8,9 -12,11 -3,2 -7,3 -11,3 -3,0 -5,0 -7,-1 -3,-2 -4,-3 -5,-5 -2,-2 -2,-5 -2,-7 0,-2 0,-5 1,-8l8 -36c0,-3 1,-5 1,-7 0,-2 -1,-4 -3,-5 -1,-2 -3,-2 -6,-2 -2,0 -6,0 -9,2 -3,1 -6,4 -10,8 -3,3 -7,8 -10,13 -3,5 -5,12 -8,19 -1,3 -2,8 -4,15l-3 13 -13 0 15 -66 -15 0 2 -7c5,-1 9,-2 12,-2 3,-1 6,-3 11,-5l6 0zm153 2l-17 75c-2,10 -5,17 -9,23 -4,5 -9,10 -16,13 -6,3 -14,5 -22,5 -8,0 -15,-2 -20,-5 -5,-4 -8,-7 -8,-11 0,-2 1,-4 2,-5 1,-2 3,-2 4,-2 2,0 3,0 4,0 1,1 2,2 3,3 1,0 2,2 4,4 1,3 3,4 4,5 1,1 2,2 4,2 2,1 4,1 6,1 5,0 9,-1 13,-4 5,-2 8,-6 11,-10 3,-5 6,-12 8,-21l3 -17c-2,4 -5,8 -7,10 -5,5 -9,8 -14,10 -5,3 -10,4 -14,4 -7,0 -13,-3 -17,-7 -5,-6 -7,-13 -7,-21 0,-10 2,-18 6,-27 5,-9 11,-15 18,-20 7,-4 15,-7 22,-7 4,0 7,1 10,2 3,1 6,2 9,3 2,2 4,3 6,6l4 -9 10 0zm-17 15c-3,-3 -6,-5 -9,-6 -3,-2 -7,-3 -10,-3 -5,0 -10,2 -16,6 -5,4 -10,10 -13,18 -4,7 -6,16 -6,24 0,5 1,9 4,12 2,4 5,5 9,5 4,0 9,-1 13,-5 7,-4 12,-11 17,-19 5,-8 8,-19 11,-32zm148 -15l13 0 -16 74c-1,5 -2,9 -3,10 -2,5 -4,9 -6,13 -2,4 -6,7 -10,10 -3,3 -8,5 -13,7 -4,1 -10,2 -15,2 -9,0 -16,-2 -21,-5 -5,-4 -7,-8 -7,-11 0,-2 0,-4 2,-5 1,-1 2,-2 4,-2 2,0 3,0 5,1 1,1 3,3 5,6 2,3 4,5 5,6 3,1 6,2 9,2 5,0 10,-1 14,-4 5,-3 8,-7 11,-11 3,-5 5,-11 6,-19l5 -18c-4,5 -8,10 -12,13 -4,4 -8,6 -12,8 -4,2 -9,3 -13,3 -6,0 -10,-2 -14,-5 -3,-3 -5,-7 -5,-11 0,-2 1,-5 1,-8l10 -44 -14 0 1 -7c4,0 8,-1 11,-2 3,-1 7,-2 12,-5l6 0 -13 58c0,3 -1,5 -1,7 0,2 1,4 3,6 2,1 4,2 6,2 4,0 8,-1 11,-3 6,-3 10,-7 14,-12 4,-5 8,-12 11,-20 3,-6 5,-13 7,-21l3 -15zm71 -2c9,0 17,3 23,9 6,6 9,14 9,23 0,9 -3,17 -7,25 -4,8 -9,14 -16,19 -7,4 -15,6 -23,6 -7,0 -12,-1 -17,-4 -4,-2 -8,-6 -11,-11 -3,-6 -4,-11 -4,-17 0,-9 2,-17 6,-25 5,-8 10,-14 17,-18 7,-5 15,-7 23,-7zm-1 8c-5,0 -10,2 -14,5 -5,3 -8,8 -12,16 -3,7 -4,14 -4,22 0,7 1,12 4,17 3,4 8,6 14,6 4,0 9,-1 13,-5 5,-3 9,-8 12,-15 3,-8 5,-15 5,-23 0,-5 -1,-9 -3,-12 -1,-4 -3,-7 -6,-8 -2,-2 -5,-3 -9,-3zm115 -6l13 0 -13 59c0,2 -1,5 -1,7 0,2 1,3 2,4 1,1 2,1 3,1 2,0 4,0 5,-1 4,-3 7,-5 10,-9l5 4c-4,6 -8,9 -12,11 -4,2 -8,3 -11,3 -5,0 -8,-1 -11,-3 -2,-3 -4,-6 -4,-9 0,-3 1,-6 2,-11 -3,4 -5,7 -7,10 -5,4 -10,8 -14,10 -5,3 -10,4 -15,4 -3,0 -6,-1 -9,-2 -3,-1 -5,-3 -6,-6 -2,-2 -2,-5 -2,-7 0,-3 0,-6 1,-11l9 -42 -14 0 1 -7c4,0 8,-1 11,-2 3,-1 8,-2 13,-5l6 0 -14 59c0,3 0,5 0,6 0,2 0,4 2,6 1,1 3,2 5,2 5,0 10,-2 16,-6 6,-5 12,-12 16,-20 4,-9 7,-17 9,-26l4 -19zm165 0l-16 75c-3,10 -6,17 -10,23 -4,5 -9,10 -16,13 -6,3 -13,5 -21,5 -9,0 -16,-2 -21,-5 -5,-4 -8,-7 -8,-11 0,-2 1,-4 2,-5 2,-2 3,-2 5,-2 1,0 2,0 3,0 1,1 2,2 3,3 1,0 2,2 4,4 2,3 3,4 4,5 1,1 3,2 4,2 2,1 4,1 6,1 5,0 9,-1 14,-4 4,-2 7,-6 10,-10 3,-5 6,-12 8,-21l3 -17c-2,4 -5,8 -7,10 -4,5 -9,8 -14,10 -5,3 -10,4 -14,4 -7,0 -13,-3 -17,-7 -5,-6 -7,-13 -7,-21 0,-10 2,-18 7,-27 4,-9 10,-15 17,-20 7,-4 15,-7 23,-7 3,0 6,1 9,2 4,1 7,2 9,3 2,2 4,3 6,6l4 -9 10 0zm-16 15c-4,-3 -7,-5 -10,-6 -3,-2 -6,-3 -10,-3 -5,0 -10,2 -16,6 -5,4 -9,10 -13,18 -4,7 -6,16 -6,24 0,5 2,9 4,12 3,4 6,5 9,5 5,0 9,-1 13,-5 7,-4 13,-11 17,-19 5,-8 9,-19 12,-32zm58 -17l-6 26c3,-6 6,-11 10,-15 4,-4 7,-7 11,-8 3,-2 6,-3 9,-3 3,0 5,1 7,3 1,1 2,3 2,6 0,2 0,4 -2,5 -1,2 -3,3 -5,3 -1,0 -2,-1 -4,-2 -2,0 -4,-1 -5,-1 -5,0 -10,4 -15,10 -6,9 -12,23 -16,41l-4 15 -13 0 15 -66 -15 0 2 -7c5,-1 9,-1 12,-2 4,-1 7,-3 11,-5l6 0zm78 0c9,0 17,3 22,9 6,6 9,14 9,23 0,9 -2,17 -6,25 -4,8 -10,14 -16,19 -7,4 -15,6 -23,6 -7,0 -13,-1 -17,-4 -5,-2 -8,-6 -11,-11 -3,-6 -4,-11 -4,-17 0,-9 2,-17 6,-25 4,-8 10,-14 17,-18 7,-5 15,-7 23,-7zm-1 8c-5,0 -10,2 -14,5 -5,3 -9,8 -12,16 -3,7 -5,14 -5,22 0,7 2,12 5,17 3,4 8,6 13,6 5,0 10,-1 14,-5 5,-3 8,-8 12,-15 3,-8 5,-15 5,-23 0,-5 -1,-9 -3,-12 -1,-4 -3,-7 -6,-8 -3,-2 -6,-3 -9,-3zm77 -7l-13 57c-1,3 -1,6 -1,8 0,2 1,4 2,5 2,2 4,2 7,2 2,0 4,0 7,-1 2,-1 5,-2 8,-4 2,-2 5,-5 8,-8 3,-3 5,-7 8,-11 2,-3 3,-7 5,-11l6 -20 3 -16 14 0 -13 55c0,2 0,4 0,6 0,3 1,5 2,7 2,2 5,3 8,3 4,0 8,-1 13,-3 4,-3 9,-6 13,-12 5,-5 8,-11 11,-17 3,-7 4,-12 4,-17 0,-2 0,-4 -1,-6 0,-2 -1,-3 -2,-5 -1,-2 -2,-3 -2,-3 0,-1 0,-2 0,-3 0,-3 0,-5 2,-6 1,-1 3,-2 5,-2 3,0 6,1 7,4 2,2 3,6 3,11 0,7 -2,15 -5,24 -4,9 -9,17 -15,24 -6,7 -12,12 -18,15 -6,3 -12,5 -18,5 -6,0 -11,-2 -15,-5 -3,-4 -5,-9 -5,-15 0,-1 0,-3 0,-5 -5,8 -11,15 -17,19 -6,4 -13,6 -20,6 -5,0 -10,-2 -13,-5 -4,-2 -5,-6 -5,-10 0,-2 0,-5 1,-9l10 -44 -15 0 1 -7c5,0 8,-1 11,-2 3,0 8,-2 13,-4l6 0zm126 61c2,0 4,1 5,3 2,1 3,3 3,5 0,4 -2,6 -4,8 -2,3 -5,4 -8,4 -2,0 -4,-1 -6,-2 -1,-2 -2,-4 -2,-6 0,-3 1,-6 3,-8 3,-3 5,-4 9,-4zm49 0c2,0 4,1 6,3 1,1 2,3 2,5 0,4 -1,6 -3,8 -3,3 -5,4 -8,4 -3,0 -5,-1 -6,-2 -2,-2 -2,-4 -2,-6 0,-3 1,-6 3,-8 2,-3 5,-4 8,-4zm49 0c3,0 5,1 6,3 2,1 2,3 2,5 0,4 -1,6 -3,8 -2,3 -5,4 -8,4 -2,0 -4,-1 -6,-2 -1,-2 -2,-4 -2,-6 0,-3 1,-6 3,-8 3,-3 5,-4 8,-4zm50 0c2,0 4,1 6,3 1,1 2,3 2,5 0,4 -1,6 -3,8 -3,3 -5,4 -8,4 -3,0 -5,-1 -6,-2 -2,-2 -3,-4 -3,-6 0,-3 2,-6 4,-8 2,-3 5,-4 8,-4zm49 0c3,0 4,1 6,3 1,1 2,3 2,5 0,4 -1,6 -3,8 -2,3 -5,4 -8,4 -3,0 -5,-1 -6,-2 -1,-2 -2,-4 -2,-6 0,-3 1,-6 3,-8 2,-3 5,-4 8,-4z"/>
   <path id="1" class="fil8" d="M1997 1138l35 0 9 89 50 -89 36 0 -2 6 -4 0c-3,0 -5,1 -6,1 -2,1 -3,1 -4,2 -1,1 -1,3 -2,4 -1,3 -1,5 -2,6l-17 76c0,1 0,3 0,4 0,2 1,4 2,5 1,1 4,1 7,1l4 0 -1 7 -45 0 2 -7 3 0c4,0 6,0 8,-1 1,0 3,-1 4,-3 1,-1 1,-3 2,-6l16 -80 -54 97 -8 0 -10 -96 -20 79c0,2 -1,3 -1,4 0,1 1,2 1,3 1,1 2,2 3,2 1,1 2,1 4,1l6 0 -2 7 -39 0 1 -7 5 0c4,0 7,-1 9,-2 1,-2 3,-5 4,-10l17 -76c0,-1 1,-2 1,-4 0,-2 -1,-4 -2,-5 -1,-1 -3,-2 -5,-2l-2 0 -5 0 2 -6zm200 34l10 0 -14 60c0,3 0,4 0,6 0,2 0,3 1,4 1,1 2,2 4,2 2,0 3,-1 5,-2 3,-2 6,-5 9,-9l5 5c-5,5 -8,8 -11,10 -4,2 -8,3 -12,3 -3,0 -6,0 -8,-1 -2,-1 -3,-3 -4,-5 -2,-2 -2,-4 -2,-7 0,-1 0,-5 1,-9 -4,6 -8,10 -12,13 -3,4 -7,6 -11,8 -4,1 -8,2 -12,2 -7,0 -13,-3 -17,-7 -5,-6 -7,-13 -7,-21 0,-10 2,-19 7,-27 4,-9 10,-15 17,-20 7,-4 15,-7 23,-7 5,0 9,1 13,3 5,2 8,4 11,8l4 -9zm-6 15c-3,-3 -6,-5 -10,-6 -3,-2 -7,-2 -10,-2 -6,0 -11,1 -16,5 -5,4 -9,9 -13,17 -4,8 -5,17 -5,25 0,3 0,6 1,9 1,3 3,5 5,6 2,1 4,2 7,2 4,0 9,-2 14,-5 6,-5 11,-11 16,-20 5,-9 9,-19 11,-31zm74 -55l-17 78c5,-9 11,-17 17,-23 6,-6 12,-10 18,-13 5,-2 11,-4 16,-4 6,0 10,1 12,3 3,2 4,4 4,7 0,2 -1,3 -2,4 -1,2 -3,2 -5,2 -1,0 -2,0 -3,0 -1,0 -2,-1 -5,-3 -3,-2 -6,-3 -8,-3 -3,0 -7,1 -11,3 -2,1 -5,3 -10,7l16 40c2,6 4,9 6,11 1,1 3,2 5,2 2,0 4,-1 6,-2 2,-1 5,-4 8,-8l5 4c-4,6 -8,9 -12,11 -3,2 -7,3 -11,3 -3,0 -5,0 -7,-1 -2,-1 -4,-3 -6,-5 -2,-3 -4,-6 -6,-10l-13 -34c-6,6 -10,13 -13,20 -5,10 -8,20 -10,29l-13 0 23 -105 -15 0 2 -6c8,-1 16,-3 23,-7l6 0zm90 0c3,0 5,1 6,2 2,2 2,4 2,6 0,3 -1,5 -3,7 -2,2 -4,3 -6,3 -3,0 -5,0 -6,-2 -2,-2 -3,-4 -3,-6 0,-3 1,-5 3,-7 2,-2 5,-3 7,-3zm1 38l-16 62c0,3 0,5 0,6 0,2 0,3 1,4 1,1 2,2 4,2 1,0 3,-1 5,-2 2,-2 5,-5 9,-9l5 5c-3,4 -7,7 -11,10 -4,2 -8,3 -12,3 -4,0 -8,-1 -10,-4 -3,-2 -5,-5 -5,-8 0,-3 1,-6 2,-9l11 -47 -14 0 1 -6c4,0 8,-1 11,-2 4,-1 8,-2 13,-5l6 0zm47 0l-6 26c2,-5 5,-8 7,-11 5,-5 10,-9 15,-11 5,-2 9,-4 14,-4 4,0 7,1 9,2 3,2 5,4 7,6 1,3 2,5 2,8 0,2 0,6 -1,10l-8 35c-1,3 -1,5 -1,7 0,1 0,3 1,4 1,1 2,1 4,1 4,0 8,-4 14,-11l5 5c-4,6 -8,9 -12,11 -3,2 -7,3 -11,3 -3,0 -5,0 -7,-1 -3,-2 -4,-3 -5,-5 -2,-2 -2,-5 -2,-7 0,-2 0,-5 1,-8l8 -36c0,-3 1,-5 1,-7 0,-2 -1,-4 -3,-5 -1,-2 -3,-2 -6,-2 -2,0 -6,0 -9,2 -3,1 -6,4 -10,8 -3,3 -7,8 -10,13 -3,5 -5,12 -8,19 -1,3 -2,8 -4,15l-3 13 -13 0 15 -66 -15 0 2 -7c5,-1 9,-2 12,-2 3,-1 6,-3 11,-5l6 0zm153 2l-17 75c-2,10 -5,17 -9,23 -4,5 -9,10 -16,13 -6,3 -14,5 -22,5 -8,0 -15,-2 -20,-5 -5,-4 -8,-7 -8,-11 0,-2 1,-4 2,-5 1,-2 3,-2 4,-2 2,0 3,0 4,0 1,1 2,2 3,3 1,0 2,2 4,4 1,3 3,4 4,5 1,1 2,2 4,2 2,1 4,1 6,1 5,0 9,-1 13,-4 5,-2 8,-6 11,-10 3,-5 6,-12 8,-21l3 -17c-2,4 -5,8 -7,10 -5,5 -9,8 -14,10 -5,3 -10,4 -14,4 -7,0 -13,-3 -17,-7 -5,-6 -7,-13 -7,-21 0,-10 2,-18 6,-27 5,-9 11,-15 18,-20 7,-4 15,-7 22,-7 4,0 7,1 10,2 3,1 6,2 9,3 2,2 4,3 6,6l4 -9 10 0zm-17 15c-3,-3 -6,-5 -9,-6 -3,-2 -7,-3 -10,-3 -5,0 -10,2 -16,6 -5,4 -10,10 -13,18 -4,7 -6,16 -6,24 0,5 1,9 4,12 2,4 5,5 9,5 4,0 9,-1 13,-5 7,-4 12,-11 17,-19 5,-8 8,-19 11,-32zm148 -15l13 0 -16 74c-1,5 -2,9 -3,10 -2,5 -4,9 -6,13 -2,4 -6,7 -10,10 -3,3 -8,5 -13,7 -4,1 -10,2 -15,2 -9,0 -16,-2 -21,-5 -5,-4 -7,-8 -7,-11 0,-2 0,-4 2,-5 1,-1 2,-2 4,-2 2,0 3,0 5,1 1,1 3,3 5,6 2,3 4,5 5,6 3,1 6,2 9,2 5,0 10,-1 14,-4 5,-3 8,-7 11,-11 3,-5 5,-11 6,-19l5 -18c-4,5 -8,10 -12,13 -4,4 -8,6 -12,8 -4,2 -9,3 -13,3 -6,0 -10,-2 -14,-5 -3,-3 -5,-7 -5,-11 0,-2 1,-5 1,-8l10 -44 -14 0 1 -7c4,0 8,-1 11,-2 3,-1 7,-2 12,-5l6 0 -13 58c0,3 -1,5 -1,7 0,2 1,4 3,6 2,1 4,2 6,2 4,0 8,-1 11,-3 6,-3 10,-7 14,-12 4,-5 8,-12 11,-20 3,-6 5,-13 7,-21l3 -15zm71 -2c9,0 17,3 23,9 6,6 9,14 9,23 0,9 -3,17 -7,25 -4,8 -9,14 -16,19 -7,4 -15,6 -23,6 -7,0 -12,-1 -17,-4 -4,-2 -8,-6 -11,-11 -3,-6 -4,-11 -4,-17 0,-9 2,-17 6,-25 5,-8 10,-14 17,-18 7,-5 15,-7 23,-7zm-1 8c-5,0 -10,2 -14,5 -5,3 -8,8 -12,16 -3,7 -4,14 -4,22 0,7 1,12 4,17 3,4 8,6 14,6 4,0 9,-1 13,-5 5,-3 9,-8 12,-15 3,-8 5,-15 5,-23 0,-5 -1,-9 -3,-12 -1,-4 -3,-7 -6,-8 -2,-2 -5,-3 -9,-3zm115 -6l13 0 -13 59c0,2 -1,5 -1,7 0,2 1,3 2,4 1,1 2,1 3,1 2,0 4,0 5,-1 4,-3 7,-5 10,-9l5 4c-4,6 -8,9 -12,11 -4,2 -8,3 -11,3 -5,0 -8,-1 -11,-3 -2,-3 -4,-6 -4,-9 0,-3 1,-6 2,-11 -3,4 -5,7 -7,10 -5,4 -10,8 -14,10 -5,3 -10,4 -15,4 -3,0 -6,-1 -9,-2 -3,-1 -5,-3 -6,-6 -2,-2 -2,-5 -2,-7 0,-3 0,-6 1,-11l9 -42 -14 0 1 -7c4,0 8,-1 11,-2 3,-1 8,-2 13,-5l6 0 -14 59c0,3 0,5 0,6 0,2 0,4 2,6 1,1 3,2 5,2 5,0 10,-2 16,-6 6,-5 12,-12 16,-20 4,-9 7,-17 9,-26l4 -19zm165 0l-16 75c-3,10 -6,17 -10,23 -4,5 -9,10 -16,13 -6,3 -13,5 -21,5 -9,0 -16,-2 -21,-5 -5,-4 -8,-7 -8,-11 0,-2 1,-4 2,-5 2,-2 3,-2 5,-2 1,0 2,0 3,0 1,1 2,2 3,3 1,0 2,2 4,4 2,3 3,4 4,5 1,1 3,2 4,2 2,1 4,1 6,1 5,0 9,-1 14,-4 4,-2 7,-6 10,-10 3,-5 6,-12 8,-21l3 -17c-2,4 -5,8 -7,10 -4,5 -9,8 -14,10 -5,3 -10,4 -14,4 -7,0 -13,-3 -17,-7 -5,-6 -7,-13 -7,-21 0,-10 2,-18 7,-27 4,-9 10,-15 17,-20 7,-4 15,-7 23,-7 3,0 6,1 9,2 4,1 7,2 9,3 2,2 4,3 6,6l4 -9 10 0zm-16 15c-4,-3 -7,-5 -10,-6 -3,-2 -6,-3 -10,-3 -5,0 -10,2 -16,6 -5,4 -9,10 -13,18 -4,7 -6,16 -6,24 0,5 2,9 4,12 3,4 6,5 9,5 5,0 9,-1 13,-5 7,-4 13,-11 17,-19 5,-8 9,-19 12,-32zm58 -17l-6 26c3,-6 6,-11 10,-15 4,-4 7,-7 11,-8 3,-2 6,-3 9,-3 3,0 5,1 7,3 1,1 2,3 2,6 0,2 0,4 -2,5 -1,2 -3,3 -5,3 -1,0 -2,-1 -4,-2 -2,0 -4,-1 -5,-1 -5,0 -10,4 -15,10 -6,9 -12,23 -16,41l-4 15 -13 0 15 -66 -15 0 2 -7c5,-1 9,-1 12,-2 4,-1 7,-3 11,-5l6 0zm78 0c9,0 17,3 22,9 6,6 9,14 9,23 0,9 -2,17 -6,25 -4,8 -10,14 -16,19 -7,4 -15,6 -23,6 -7,0 -13,-1 -17,-4 -5,-2 -8,-6 -11,-11 -3,-6 -4,-11 -4,-17 0,-9 2,-17 6,-25 4,-8 10,-14 17,-18 7,-5 15,-7 23,-7zm-1 8c-5,0 -10,2 -14,5 -5,3 -9,8 -12,16 -3,7 -5,14 -5,22 0,7 2,12 5,17 3,4 8,6 13,6 5,0 10,-1 14,-5 5,-3 8,-8 12,-15 3,-8 5,-15 5,-23 0,-5 -1,-9 -3,-12 -1,-4 -3,-7 -6,-8 -3,-2 -6,-3 -9,-3zm77 -7l-13 57c-1,3 -1,6 -1,8 0,2 1,4 2,5 2,2 4,2 7,2 2,0 4,0 7,-1 2,-1 5,-2 8,-4 2,-2 5,-5 8,-8 3,-3 5,-7 8,-11 2,-3 3,-7 5,-11l6 -20 3 -16 14 0 -13 55c0,2 0,4 0,6 0,3 1,5 2,7 2,2 5,3 8,3 4,0 8,-1 13,-3 4,-3 9,-6 13,-12 5,-5 8,-11 11,-17 3,-7 4,-12 4,-17 0,-2 0,-4 -1,-6 0,-2 -1,-3 -2,-5 -1,-2 -2,-3 -2,-3 0,-1 0,-2 0,-3 0,-3 0,-5 2,-6 1,-1 3,-2 5,-2 3,0 6,1 7,4 2,2 3,6 3,11 0,7 -2,15 -5,24 -4,9 -9,17 -15,24 -6,7 -12,12 -18,15 -6,3 -12,5 -18,5 -6,0 -11,-2 -15,-5 -3,-4 -5,-9 -5,-15 0,-1 0,-3 0,-5 -5,8 -11,15 -17,19 -6,4 -13,6 -20,6 -5,0 -10,-2 -13,-5 -4,-2 -5,-6 -5,-10 0,-2 0,-5 1,-9l10 -44 -15 0 1 -7c5,0 8,-1 11,-2 3,0 8,-2 13,-4l6 0zm126 61c2,0 4,1 5,3 2,1 3,3 3,5 0,4 -2,6 -4,8 -2,3 -5,4 -8,4 -2,0 -4,-1 -6,-2 -1,-2 -2,-4 -2,-6 0,-3 1,-6 3,-8 3,-3 5,-4 9,-4zm49 0c2,0 4,1 6,3 1,1 2,3 2,5 0,4 -1,6 -3,8 -3,3 -5,4 -8,4 -3,0 -5,-1 -6,-2 -2,-2 -2,-4 -2,-6 0,-3 1,-6 3,-8 2,-3 5,-4 8,-4zm49 0c3,0 5,1 6,3 2,1 2,3 2,5 0,4 -1,6 -3,8 -2,3 -5,4 -8,4 -2,0 -4,-1 -6,-2 -1,-2 -2,-4 -2,-6 0,-3 1,-6 3,-8 3,-3 5,-4 8,-4zm50 0c2,0 4,1 6,3 1,1 2,3 2,5 0,4 -1,6 -3,8 -3,3 -5,4 -8,4 -3,0 -5,-1 -6,-2 -2,-2 -3,-4 -3,-6 0,-3 2,-6 4,-8 2,-3 5,-4 8,-4zm49 0c3,0 4,1 6,3 1,1 2,3 2,5 0,4 -1,6 -3,8 -2,3 -5,4 -8,4 -3,0 -5,-1 -6,-2 -1,-2 -2,-4 -2,-6 0,-3 1,-6 3,-8 2,-3 5,-4 8,-4z"/>
  </g>
 </g>
</svg>
