<?xml version="1.0" encoding="UTF-8"?>
<svg version="1.1" xmlns="http://www.w3.org/2000/svg" width="500" height="500">
<path d="M0 0 C1.02480469 -0.01998047 2.04960937 -0.03996094 3.10546875 -0.06054688 C17.53704076 -0.05137815 27.84948397 6.92181845 37.75 16.8125 C41.12491333 20.2338154 44.41203663 23.69013649 47.5 27.375 C50.64937391 31.0850032 54.16228959 34.3067004 57.74032593 37.5912323 C66.67215654 45.86459555 75.28988697 54.43937354 83.90478516 63.0402832 C85.63267608 64.76189144 87.36074949 66.48331654 89.08898926 68.20457458 C94.21746874 73.31405063 99.3418347 78.42763824 104.46529156 83.5421491 C106.40137539 85.47470655 108.33776734 87.40695512 110.27417261 89.33919049 C118.83185954 97.87846052 127.38821514 106.41906197 135.94056129 114.96368122 C138.01944648 117.04065726 140.09833734 119.11762763 142.17724609 121.19458008 C142.69380022 121.71065046 143.21035434 122.22672085 143.74256162 122.75842973 C152.13787583 131.145417 160.54169333 139.52383035 168.94902046 147.89877377 C177.6117856 156.52844548 186.26698077 165.16565113 194.91481245 173.81028813 C199.75834915 178.65166526 204.6050897 183.48973451 209.46034622 188.31936073 C214.01845096 192.85345424 218.56623564 197.39773131 223.10720825 201.94898415 C224.77222624 203.61449758 226.44065791 205.27660656 228.1127739 206.93499374 C230.3989193 209.20341644 232.67231054 211.48392068 234.94302368 213.76777649 C235.60303458 214.41681814 236.26304548 215.06585979 236.9430567 215.73456937 C245.62164147 224.53448379 250.43728717 235.11539954 250.59326172 247.4934082 C250.58311035 248.4237085 250.57295898 249.35400879 250.5625 250.3125 C250.55114014 251.76885864 250.55114014 251.76885864 250.53955078 253.25463867 C250.23144199 266.63713049 244.94571603 277.53242691 235.2421875 286.8046875 C225.4488214 294.3575049 213.56776139 297.52834399 201.3671875 297.4609375 C200.17005127 297.45586182 200.17005127 297.45586182 198.94873047 297.45068359 C198.34689941 297.44633301 197.74506836 297.44198242 197.125 297.4375 C197.12960896 298.24311654 197.13421793 299.04873308 197.13896656 299.87876225 C197.24968434 319.53691193 197.3322721 339.19499888 197.38406086 358.85339451 C197.40977517 368.36030379 197.4447952 377.86700416 197.50219727 387.3737793 C197.55224069 395.66583196 197.58434016 403.95773321 197.59544247 412.24993271 C197.60192602 416.63527844 197.61702047 421.02019128 197.65365028 425.40539742 C197.68794198 429.54477565 197.69798721 433.68354846 197.69053841 437.82305527 C197.69189832 439.3309796 197.70163162 440.83892717 197.72102737 442.34672737 C197.90336506 457.27113991 194.68362433 469.67632912 185.125 481.4375 C184.19494141 482.67113281 184.19494141 482.67113281 183.24609375 483.9296875 C180.94233741 486.65346572 178.56522864 488.74702073 175.75 490.9375 C174.83476562 491.6696875 173.91953125 492.401875 172.9765625 493.15625 C160.2480036 501.34737605 146.96945468 501.19574158 132.34765625 501.13671875 C130.16482659 501.14263846 127.98200017 501.14988968 125.79917908 501.15840149 C121.25128091 501.17021562 116.70387432 501.16367736 112.15600586 501.14428711 C106.33631985 501.12130095 100.51808422 501.14832119 94.69854069 501.18934917 C90.20226679 501.21493544 85.70634037 501.21234677 81.21002007 501.20145607 C79.06386426 501.19997288 76.91768138 501.2076188 74.77159309 501.22470665 C71.77529818 501.24471319 68.78157734 501.22626598 65.78540039 501.19799805 C64.90683884 501.21171448 64.02827728 501.22543091 63.12309265 501.23956299 C57.60236496 501.13568723 54.59938376 499.94043284 50.51193905 496.21154499 C47.55913861 492.43459398 46.87517614 488.82768339 46.8734436 484.12007141 C46.86806076 483.06746628 46.86267792 482.01486115 46.85713196 480.93035889 C46.86125595 479.78585266 46.86537994 478.64134644 46.86962891 477.4621582 C46.86419823 475.64173256 46.86419823 475.64173256 46.85865784 473.78453064 C46.8517656 471.14953479 46.8483734 468.51479472 46.85060501 465.87981606 C46.8534465 461.7053858 46.83905351 457.53112366 46.82162476 453.35673523 C46.77468235 441.48793064 46.75067271 429.61913747 46.74414062 417.75024414 C46.74037849 411.19113395 46.72225569 404.6322142 46.68904626 398.07318562 C46.66893208 393.93199645 46.66641273 389.79130184 46.67732644 385.65008414 C46.6805684 382.45325252 46.65779371 379.25658193 46.63916016 376.05981445 C46.64733261 374.92542938 46.65550507 373.79104431 46.66392517 372.62228394 C46.58478016 364.96300693 45.67050509 357.44093202 40.40435219 351.49461842 C35.42214643 346.80523946 30.07520457 345.19944056 23.26245117 345.14697266 C22.13074997 345.13421295 20.99904877 345.12145325 19.83305359 345.10830688 C18.62357559 345.10608124 17.4140976 345.10385559 16.16796875 345.1015625 C14.91043289 345.0949057 13.65289703 345.0882489 12.35725403 345.08139038 C9.70018322 345.07127848 7.04352181 345.06570592 4.38647461 345.06689453 C1.00399958 345.06709738 -2.37763209 345.03981645 -5.75990772 345.00535011 C-9.01308269 344.97758414 -12.26625402 344.97892796 -15.51953125 344.9765625 C-16.72293655 344.96219147 -17.92634186 344.94782043 -19.16621399 344.93301392 C-27.77701344 344.97944438 -34.39169802 346.10564593 -40.75 352.1875 C-45.88683998 360.0438435 -46.30548767 366.73811322 -46.24389648 375.90869141 C-46.24766296 377.13892532 -46.25142944 378.36915924 -46.25531006 379.63667297 C-46.26172818 382.29795251 -46.26287809 384.95861555 -46.25512505 387.61983109 C-46.24348124 391.8312382 -46.25575386 396.04237307 -46.27174377 400.25375366 C-46.30782924 410.70896805 -46.31416675 421.16417474 -46.31164551 431.6194458 C-46.30993309 439.75677503 -46.31707497 447.89387993 -46.35162407 456.03114641 C-46.36838607 460.2144561 -46.36665263 464.39721743 -46.35080135 468.58052468 C-46.34363173 471.79543632 -46.36224593 475.01022161 -46.37670898 478.22509766 C-46.36696548 479.37850143 -46.35722198 480.53190521 -46.34718323 481.72026062 C-46.41640634 489.41993074 -47.76440861 493.06142369 -53.03343201 498.78015137 C-57.13296392 501.17120927 -60.67181935 500.99760131 -65.34008789 500.95507812 C-66.76067505 500.96559204 -66.76067505 500.96559204 -68.20996094 500.97631836 C-71.33949165 500.99391413 -74.46811636 500.98226307 -77.59765625 500.96875 C-79.78136874 500.97144602 -81.96508006 500.97532936 -84.14878845 500.98034668 C-88.72943532 500.98624521 -93.30977026 500.97767293 -97.89038086 500.95898438 C-103.73534024 500.93628944 -109.57956106 500.94925585 -115.42449284 500.97327423 C-119.93809967 500.98780337 -124.4515347 500.98309208 -128.96514702 500.97276306 C-131.11832201 500.97011048 -133.27151302 500.97331335 -135.42466927 500.98268127 C-161.62457504 501.07159475 -161.62457504 501.07159475 -172.25 493 C-173.00023437 492.44441406 -173.75046875 491.88882812 -174.5234375 491.31640625 C-175.29945313 490.69636719 -176.07546875 490.07632812 -176.875 489.4375 C-178.36 488.27927734 -178.36 488.27927734 -179.875 487.09765625 C-187.91862003 480.33329641 -193.07779947 470.41085188 -195.875 460.4375 C-196.04205948 459.86752792 -196.20911896 459.29755585 -196.38124084 458.71031189 C-199.82467299 442.85992524 -198.00684374 425.20813595 -197.97639394 409.03987193 C-197.97006907 405.10548628 -197.96954947 401.17109955 -197.96836853 397.23670959 C-197.96528179 389.8140818 -197.95710487 382.39146904 -197.94701904 374.96884781 C-197.93577455 366.50670615 -197.93032661 358.04456371 -197.92532361 349.58241642 C-197.91491951 332.20076897 -197.89737249 314.81913608 -197.875 297.4375 C-198.94371338 297.38996582 -200.01242676 297.34243164 -201.11352539 297.29345703 C-202.54575909 297.21952772 -203.97796818 297.14512062 -205.41015625 297.0703125 C-206.11096313 297.04042236 -206.81177002 297.01053223 -207.53381348 296.97973633 C-221.05794529 296.23815334 -231.57525288 290.30431653 -240.6875 280.5 C-250.9607038 268.18166766 -250.99037855 253.77894714 -249.875 238.4375 C-247.70491134 226.35257511 -238.55014318 217.81218036 -230.1660614 209.46113586 C-229.31367364 208.60421699 -228.46128588 207.74729812 -227.58306819 206.86441201 C-225.23883354 204.50977702 -222.89026661 202.1596285 -220.53964627 199.81137884 C-217.99679528 197.26893864 -215.45969395 194.720771 -212.92178345 192.17340088 C-207.95802658 187.19309206 -202.98878303 182.21829363 -198.01730283 177.24569551 C-193.97484476 173.20228459 -189.93397518 169.15729296 -185.89420509 165.11119652 C-174.42524685 153.62464493 -162.95212526 142.14227531 -151.47361579 130.66526816 C-150.85591877 130.04765105 -150.23822175 129.43003395 -149.60180664 128.79370117 C-148.98334977 128.17532606 -148.3648929 127.55695095 -147.72769491 126.9198372 C-137.70036947 116.89332504 -127.68306481 106.85686714 -117.67024913 96.81586692 C-107.37409736 86.49096326 -97.07048157 76.17356021 -86.75908023 65.86388558 C-80.97607708 60.08154533 -75.19616932 54.29618845 -69.42429161 48.50274086 C-64.51177926 43.5719868 -59.59234958 38.6482646 -54.66393503 33.73340312 C-52.15231152 31.22829295 -49.6439582 28.72013213 -47.14430809 26.20306969 C-44.42868907 23.46872973 -41.69757506 20.75020243 -38.96488953 18.03291321 C-38.18558459 17.24332114 -37.40627964 16.45372907 -36.6033594 15.64020997 C-25.78914052 4.95974803 -15.1086133 -0.10374204 0 0 Z " fill="#020202" transform="translate(249.875,-0.4375)"/>
</svg>
